<svg xmlns="http://www.w3.org/2000/svg" width="145.299" height="21.718" viewBox="0 0 145.299 21.718"><g transform="translate(-806.562 -112)"><path d="M-30.528-1.464a1.725,1.725,0,0,0,.642.558,1.826,1.826,0,0,0,.78.162A1.538,1.538,0,0,0-27.8-1.35a2.83,2.83,0,0,0,.456-1.728,4.312,4.312,0,0,0-.1-1.02,2,2,0,0,0-.3-.7,1.179,1.179,0,0,0-.486-.4,1.616,1.616,0,0,0-.654-.126,1.72,1.72,0,0,0-.915.24,2.638,2.638,0,0,0-.723.678Zm-.054-3.672a3.149,3.149,0,0,1,.888-.762,2.28,2.28,0,0,1,1.152-.288,2.208,2.208,0,0,1,.954.2,1.955,1.955,0,0,1,.726.594,2.849,2.849,0,0,1,.462.975,5,5,0,0,1,.162,1.338,4.194,4.194,0,0,1-.18,1.251,3.014,3.014,0,0,1-.519,1,2.439,2.439,0,0,1-.828.666,2.44,2.44,0,0,1-1.1.243,2.219,2.219,0,0,1-.957-.189,2.249,2.249,0,0,1-.7-.525V2.058H-31.6V-6.078h.642a.264.264,0,0,1,.282.222Zm8.268-1.038a3.1,3.1,0,0,1,1.2.222,2.572,2.572,0,0,1,.912.63,2.765,2.765,0,0,1,.579.987,3.925,3.925,0,0,1,.2,1.293,3.917,3.917,0,0,1-.2,1.3,2.769,2.769,0,0,1-.579.984,2.539,2.539,0,0,1-.912.627,3.137,3.137,0,0,1-1.2.219,3.176,3.176,0,0,1-1.209-.219,2.533,2.533,0,0,1-.915-.627,2.769,2.769,0,0,1-.579-.984,3.917,3.917,0,0,1-.2-1.3,3.924,3.924,0,0,1,.2-1.293,2.765,2.765,0,0,1,.579-.987,2.566,2.566,0,0,1,.915-.63A3.138,3.138,0,0,1-22.314-6.174Zm0,5.424a1.56,1.56,0,0,0,1.344-.6,2.792,2.792,0,0,0,.444-1.683,2.818,2.818,0,0,0-.444-1.692,1.557,1.557,0,0,0-1.344-.606,1.886,1.886,0,0,0-.795.156,1.477,1.477,0,0,0-.564.45,2,2,0,0,0-.336.723,3.876,3.876,0,0,0-.111.969,2.778,2.778,0,0,0,.447,1.683A1.582,1.582,0,0,0-22.314-.75ZM-9.78-6.078-11.748,0h-.846q-.156,0-.216-.2l-1.344-4.122a2.315,2.315,0,0,1-.078-.279q-.03-.141-.06-.279-.03.138-.06.279a2.636,2.636,0,0,1-.078.285L-15.8-.2a.236.236,0,0,1-.24.2h-.8L-18.81-6.078h.84a.342.342,0,0,1,.213.066.324.324,0,0,1,.117.156l1.164,3.912q.1.432.162.816.054-.2.111-.4t.123-.414L-14.8-5.88a.317.317,0,0,1,.1-.15.284.284,0,0,1,.183-.06h.468a.315.315,0,0,1,.2.06.309.309,0,0,1,.108.15l1.254,3.936q.066.21.12.414t.1.4q.03-.2.075-.4t.1-.417L-10.9-5.856a.311.311,0,0,1,.114-.159.321.321,0,0,1,.2-.063ZM-4.752-3.7a2.106,2.106,0,0,0-.105-.681,1.529,1.529,0,0,0-.306-.534,1.365,1.365,0,0,0-.489-.348,1.651,1.651,0,0,0-.654-.123,1.642,1.642,0,0,0-1.215.447A2.094,2.094,0,0,0-8.076-3.7Zm.864,2.85a2.029,2.029,0,0,1-.474.417,2.951,2.951,0,0,1-.591.291A3.754,3.754,0,0,1-5.6.027,3.976,3.976,0,0,1-6.27.084,3.09,3.09,0,0,1-7.431-.129a2.548,2.548,0,0,1-.918-.624,2.863,2.863,0,0,1-.6-1.017,4.135,4.135,0,0,1-.216-1.392A3.542,3.542,0,0,1-8.973-4.35a2.8,2.8,0,0,1,.561-.957,2.583,2.583,0,0,1,.894-.636A2.935,2.935,0,0,1-6.33-6.174a2.737,2.737,0,0,1,1.011.183,2.287,2.287,0,0,1,.8.528,2.419,2.419,0,0,1,.531.852,3.245,3.245,0,0,1,.192,1.155.7.7,0,0,1-.054.336.224.224,0,0,1-.2.084H-8.112a3.554,3.554,0,0,0,.159,1,2.013,2.013,0,0,0,.393.711,1.587,1.587,0,0,0,.6.426,2.061,2.061,0,0,0,.78.141,2.288,2.288,0,0,0,.693-.093,3.3,3.3,0,0,0,.5-.2,3.822,3.822,0,0,0,.351-.2.465.465,0,0,1,.243-.093.235.235,0,0,1,.2.1ZM-1.47-4.86a2.741,2.741,0,0,1,.708-.975A1.547,1.547,0,0,1,.264-6.186a1.593,1.593,0,0,1,.369.042.99.99,0,0,1,.315.132l-.078.8a.172.172,0,0,1-.18.15A1.239,1.239,0,0,1,.444-5.1a1.694,1.694,0,0,0-.366-.036,1.46,1.46,0,0,0-.513.084,1.2,1.2,0,0,0-.4.249,1.76,1.76,0,0,0-.318.408,3.5,3.5,0,0,0-.255.555V0H-2.484V-6.078h.612a.338.338,0,0,1,.24.066.4.4,0,0,1,.09.228ZM5.706-3.7A2.106,2.106,0,0,0,5.6-4.383,1.529,1.529,0,0,0,5.3-4.917a1.365,1.365,0,0,0-.489-.348,1.651,1.651,0,0,0-.654-.123,1.642,1.642,0,0,0-1.215.447A2.094,2.094,0,0,0,2.382-3.7ZM6.57-.852A2.029,2.029,0,0,1,6.1-.435,2.951,2.951,0,0,1,5.5-.144a3.754,3.754,0,0,1-.651.171,3.976,3.976,0,0,1-.666.057A3.09,3.09,0,0,1,3.027-.129a2.548,2.548,0,0,1-.918-.624,2.863,2.863,0,0,1-.6-1.017A4.135,4.135,0,0,1,1.29-3.162a3.542,3.542,0,0,1,.2-1.188,2.8,2.8,0,0,1,.561-.957,2.583,2.583,0,0,1,.894-.636,2.935,2.935,0,0,1,1.188-.231,2.737,2.737,0,0,1,1.011.183,2.287,2.287,0,0,1,.8.528,2.419,2.419,0,0,1,.531.852,3.245,3.245,0,0,1,.192,1.155.7.7,0,0,1-.054.336.224.224,0,0,1-.2.084H2.346a3.554,3.554,0,0,0,.159,1,2.013,2.013,0,0,0,.393.711A1.587,1.587,0,0,0,3.5-.9a2.061,2.061,0,0,0,.78.141,2.288,2.288,0,0,0,.693-.093,3.3,3.3,0,0,0,.5-.2,3.822,3.822,0,0,0,.351-.2.465.465,0,0,1,.243-.093.235.235,0,0,1,.2.1Zm5.364-3.78a1.726,1.726,0,0,0-.648-.561,1.856,1.856,0,0,0-.78-.159,1.532,1.532,0,0,0-1.3.606,2.83,2.83,0,0,0-.456,1.728A4.394,4.394,0,0,0,8.85-2a1.957,1.957,0,0,0,.3.7,1.179,1.179,0,0,0,.486.4,1.616,1.616,0,0,0,.654.126,1.732,1.732,0,0,0,.921-.24,2.638,2.638,0,0,0,.723-.678ZM13-8.838V0h-.636a.272.272,0,0,1-.288-.222l-.1-.738a3.309,3.309,0,0,1-.888.756A2.26,2.26,0,0,1,9.942.084a2.194,2.194,0,0,1-.948-.2,1.966,1.966,0,0,1-.726-.591,2.815,2.815,0,0,1-.462-.972,5,5,0,0,1-.162-1.338,4.194,4.194,0,0,1,.18-1.251A3.082,3.082,0,0,1,8.34-5.274a2.4,2.4,0,0,1,.825-.669,2.44,2.44,0,0,1,1.1-.243A2.219,2.219,0,0,1,11.223-6a2.319,2.319,0,0,1,.711.525V-8.838ZM18.84-1.464a1.717,1.717,0,0,0,.645.558,1.817,1.817,0,0,0,.771.162A1.545,1.545,0,0,0,21.57-1.35a2.982,2.982,0,0,0,.456-1.806,2.687,2.687,0,0,0-.4-1.641,1.373,1.373,0,0,0-1.155-.525,1.689,1.689,0,0,0-.909.24,2.677,2.677,0,0,0-.717.678Zm0-3.738a3.125,3.125,0,0,1,.867-.708,2.283,2.283,0,0,1,1.113-.264,2.215,2.215,0,0,1,.963.2,2,2,0,0,1,.729.591,2.763,2.763,0,0,1,.459.939A4.486,4.486,0,0,1,23.13-3.2a4.71,4.71,0,0,1-.18,1.344,3.05,3.05,0,0,1-.519,1.035,2.355,2.355,0,0,1-.825.666,2.459,2.459,0,0,1-1.092.237A2.082,2.082,0,0,1,19.5-.141a2.211,2.211,0,0,1-.717-.639l-.054.552A.257.257,0,0,1,18.456,0h-.69V-8.838H18.84Zm10.734-.876-3.39,7.872a.559.559,0,0,1-.135.192.367.367,0,0,1-.249.072h-.792l1.11-2.412L23.61-6.078h.924a.327.327,0,0,1,.219.069.362.362,0,0,1,.111.153L26.49-2.028a4.273,4.273,0,0,1,.162.528q.084-.282.18-.534L28.41-5.856a.341.341,0,0,1,.123-.159.324.324,0,0,1,.195-.063Z" transform="translate(838.164 128.813)" fill="#222" opacity="0.997"/><g transform="translate(903.456 116.57)"><g transform="translate(0 0)"><path d="M161.358,135.554l.068-12.7,1.509.008-.068,12.7Z" transform="translate(-161.358 -122.159)" fill="#232323"/><path d="M177.093,120.855l-.072,13.445-1.319-.007.008-1.44a3.439,3.439,0,0,1-1.221,1.312,3.109,3.109,0,0,1-1.668.451,3.507,3.507,0,0,1-2.748-1.19,5.2,5.2,0,0,1,.012-6.224,3.451,3.451,0,0,1,2.73-1.148,3.05,3.05,0,0,1,2.887,1.794l.038-7Zm-1.37,9.508a3.056,3.056,0,0,0-.726-2.142,2.5,2.5,0,0,0-1.939-.822,2.427,2.427,0,0,0-1.886.727,2.9,2.9,0,0,0-.688,2.035,3.5,3.5,0,0,0,.673,2.3,2.32,2.32,0,0,0,1.886.839,2.505,2.505,0,0,0,1.96-.77A3.112,3.112,0,0,0,175.724,130.363Z" transform="translate(-166.38 -120.847)" fill="#232323"/><path d="M194.808,140.264a4.281,4.281,0,0,1,.33-1.651,4.154,4.154,0,0,1,.944-1.379,4.242,4.242,0,0,1,1.4-.916,4.38,4.38,0,0,1,1.667-.308,4.254,4.254,0,0,1,1.642.33,4.452,4.452,0,0,1,1.4.944,4.067,4.067,0,0,1,.93,1.38,4.261,4.261,0,0,1,.312,1.646,4.2,4.2,0,0,1-.33,1.633,4.093,4.093,0,0,1-.944,1.361,4.469,4.469,0,0,1-1.423.946,4.182,4.182,0,0,1-1.637.321,4.3,4.3,0,0,1-1.659-.335,4.331,4.331,0,0,1-2.325-2.332A4.183,4.183,0,0,1,194.808,140.264Zm1.44.007a2.95,2.95,0,0,0,.83,2.134,2.728,2.728,0,0,0,2.034.883,2.691,2.691,0,0,0,2.025-.861,3.14,3.14,0,0,0,.023-4.259,2.691,2.691,0,0,0-2.016-.882,2.726,2.726,0,0,0-2.048.861A2.96,2.96,0,0,0,196.248,140.271Z" transform="translate(-183.21 -130.753)" fill="#232323"/><path d="M225.829,128.316a4.313,4.313,0,0,1,1.862,1.416,3.461,3.461,0,0,1,.617,2.076,3.737,3.737,0,0,1-1.13,2.818,4.56,4.56,0,0,1-5.47.274,3.784,3.784,0,0,1-1.359-2.189l1.374-.669a3.41,3.41,0,0,0,.906,1.753,2.255,2.255,0,0,0,1.6.6,2.589,2.589,0,0,0,1.842-.645,2.221,2.221,0,0,0,.711-1.7,2.336,2.336,0,0,0-.482-1.482,3.719,3.719,0,0,0-1.473-1.071l-1.54-.668a4.388,4.388,0,0,1-1.88-1.372,3.246,3.246,0,0,1-.609-2,2.851,2.851,0,0,1,1.018-2.233,3.747,3.747,0,0,1,2.572-.871,3.885,3.885,0,0,1,1.979.5,3.3,3.3,0,0,1,1.3,1.438l-1.253.791a3.269,3.269,0,0,0-.948-1.1,2.078,2.078,0,0,0-1.2-.366,1.926,1.926,0,0,0-1.395.512,1.876,1.876,0,0,0-.139,2.5,3.48,3.48,0,0,0,1.288.883Z" transform="translate(-199.897 -121.834)" fill="#232323"/><path d="M251.061,140.712l-6.289-.034v.121a2.906,2.906,0,0,0,.718,2.064,2.47,2.47,0,0,0,1.9.8,2.532,2.532,0,0,0,1.442-.422,3.748,3.748,0,0,0,1.143-1.29l1.029.7a3.975,3.975,0,0,1-3.69,2.149,3.826,3.826,0,0,1-2.925-1.212,4.414,4.414,0,0,1-1.1-3.146,4.3,4.3,0,0,1,1.126-3.048,3.731,3.731,0,0,1,2.86-1.173,3.587,3.587,0,0,1,2.783,1.142,4.4,4.4,0,0,1,1.011,3.085ZM249.61,139.6a2.282,2.282,0,0,0-.689-1.621,2.476,2.476,0,0,0-1.719-.578,2.32,2.32,0,0,0-2.423,2.173Z" transform="translate(-214.878 -130.887)" fill="#232323"/><path d="M268.332,134.724l.072-13.445,1.388.007-.072,13.445Z" transform="translate(-231.243 -121.129)" fill="#232323"/><path d="M277.308,134.772l.072-13.445,1.388.008-.072,13.445Z" transform="translate(-237.106 -121.161)" fill="#232323"/></g><g transform="translate(45.493 0)"><path d="M292.569,153.922a1.45,1.45,0,0,1,1.444-1.444,1.435,1.435,0,0,1,1.037.419,1.375,1.375,0,0,1,.431,1.025,1.332,1.332,0,0,1-.425,1,1.453,1.453,0,0,1-1.044.406,1.416,1.416,0,0,1-1.025-.406A1.341,1.341,0,0,1,292.569,153.922Z" transform="translate(-292.569 -141.511)" fill="#e50019"/><path d="M292.569,122.291a1.45,1.45,0,0,1,1.444-1.444,1.435,1.435,0,0,1,1.037.419,1.375,1.375,0,0,1,.431,1.025,1.331,1.331,0,0,1-.425,1,1.452,1.452,0,0,1-1.044.407,1.415,1.415,0,0,1-1.025-.407A1.34,1.34,0,0,1,292.569,122.291Z" transform="translate(-292.569 -120.847)" fill="#f36a10"/><path d="M292.569,138.512a1.45,1.45,0,0,1,1.444-1.444,1.435,1.435,0,0,1,1.037.419,1.375,1.375,0,0,1,.431,1.025,1.331,1.331,0,0,1-.425,1,1.452,1.452,0,0,1-1.044.407,1.415,1.415,0,0,1-1.025-.407A1.34,1.34,0,0,1,292.569,138.512Z" transform="translate(-292.569 -131.444)" fill="#2c973b"/></g></g><g transform="translate(874.385 112)"><path d="M138.55,7.322l-.711-4.266-1.681.388a3.482,3.482,0,0,0-.452-.84,2.272,2.272,0,0,0-1.745-.84,3.278,3.278,0,0,0-2.65,1.357,6.081,6.081,0,0,0-.776,1.422l.259-3.426L121.615.6v.711l-8.015.646,2.262,12.216a4.451,4.451,0,0,0-.194.517,11.7,11.7,0,0,0-.711,4.072,3.3,3.3,0,0,0,.646,2.2,2.439,2.439,0,0,0,1.939.776h.129l4.912.452v-.194l6.334-.323-.065.646,6.658-.259L138.55,7.322Z" transform="translate(-113.6 -0.6)" fill="#231f20"/><g transform="translate(8.403 0.388)"><path d="M127.376,1.394V4.367a5.134,5.134,0,0,1,1.228-.711,6.651,6.651,0,0,1,2.779-.646,2.3,2.3,0,0,1,1.81.646,2.9,2.9,0,0,1,.582,1.939v.452h0l-.9,12.669.388-.194c.065-.065.194-.065.259-.129a9.758,9.758,0,0,1,.517-3.1l1.1-13.574L126.6,1.2v.323Z" transform="translate(-126.6 -1.2)" fill="#00a551"/><path d="M128.1,8.265l.517.711.065-.776a1.706,1.706,0,0,1-.452.065Z" transform="translate(-127.13 -3.675)" fill="#00a551"/><path d="M127.982,31.8a1.723,1.723,0,0,1-.452-.9l-.129,1.422,1.163-.065A3.552,3.552,0,0,1,127.982,31.8Z" transform="translate(-126.883 -11.703)" fill="#00a551"/><path d="M135.045,31.317a9.021,9.021,0,0,1-1.745.711l2.521-.129.065-1.1A2.656,2.656,0,0,1,135.045,31.317Z" transform="translate(-128.969 -11.668)" fill="#00a551"/></g><g transform="translate(15.642 2.909)"><path d="M146.073,5.1l-1.293.323a3.686,3.686,0,0,1,.065.84,4.911,4.911,0,0,1-1.034,3.167,3.251,3.251,0,0,1-2.585,1.357,2.042,2.042,0,0,1-1.745-.776,2.886,2.886,0,0,1-.517-1.1l-.194,2.2-.323,4.331a4.743,4.743,0,0,1,1.681-2,7.391,7.391,0,0,1,2.262-1.034,7.261,7.261,0,0,1,2.262-.452,1.092,1.092,0,0,1,.646.194.63.63,0,0,1,.259.582h0a.883.883,0,0,1-.388.711,1.8,1.8,0,0,1-.776.259l-.259,3.943V17.7a10.692,10.692,0,0,1-.323,2.2c-.388,1.81-.582,2.068-.84,2.262a5.278,5.278,0,0,1-2.909,1.1,2.439,2.439,0,0,1-1.939-.776.893.893,0,0,1-.194-.259l-.129,1.357,5.947-.194L146.72,9.043Z" transform="translate(-137.8 -5.1)" fill="#ec1c24"/></g><g transform="translate(0.452 1.034)"><path d="M117.92,12.477a7.39,7.39,0,0,1,2.262-1.034,7.26,7.26,0,0,1,2.262-.452,1.092,1.092,0,0,1,.646.194c.065.065.129.129.129.194l.259-4.2-.84-1.163V5.82A4.9,4.9,0,0,1,121.6,8.6a3.163,3.163,0,0,1-2.585,1.357,2.042,2.042,0,0,1-1.745-.776,3.409,3.409,0,0,1-.582-2.068,4.911,4.911,0,0,1,1.034-3.167,3.278,3.278,0,0,1,2.65-1.357,2.213,2.213,0,0,1,1.745.776,2.968,2.968,0,0,1,.582,1.745V2.2l-8.4.711,2.133,11.376A3.833,3.833,0,0,1,117.92,12.477Z" transform="translate(-114.3 -2.2)" fill="#f48120"/><path d="M126.963,17.859a1.8,1.8,0,0,1-.776.259l-.259,3.943v.065c-.065.388-.065.776-.129,1.034a6.844,6.844,0,0,0,.646-.776,4.235,4.235,0,0,0,.517-.84l.259-3.943A.5.5,0,0,1,126.963,17.859Z" transform="translate(-118.367 -7.646)" fill="#f48120"/><path d="M123.351,30.539a6.108,6.108,0,0,1-1.551.84l3.361.323.194-3.1A11.261,11.261,0,0,1,123.351,30.539Z" transform="translate(-116.952 -11.536)" fill="#f48120"/></g><g transform="translate(1.874 1.939)"><path d="M142.281,9.547a2.556,2.556,0,0,0,2-1.1,4.425,4.425,0,0,0,.9-2.715,2.409,2.409,0,0,0-.452-1.616,1.4,1.4,0,0,0-1.163-.517A2.579,2.579,0,0,0,141.5,4.7a4.425,4.425,0,0,0-.9,2.715,2.6,2.6,0,0,0,.452,1.681A1.656,1.656,0,0,0,142.281,9.547Z" transform="translate(-125.023 -3.6)" fill="#fff"/><path d="M120.681,9.847a2.557,2.557,0,0,0,2-1.1,4.426,4.426,0,0,0,.9-2.715,2.409,2.409,0,0,0-.452-1.616,1.4,1.4,0,0,0-1.163-.517A2.579,2.579,0,0,0,119.9,5a4.426,4.426,0,0,0-.9,2.715,2.3,2.3,0,0,0,.452,1.616A1.655,1.655,0,0,0,120.681,9.847Z" transform="translate(-117.384 -3.706)" fill="#fff"/><path d="M137.313,12.533h-.194a5.994,5.994,0,0,0-2.068.452,6.848,6.848,0,0,0-2.068.97,5.237,5.237,0,0,0-1.745,2.456,9.592,9.592,0,0,0-.646,3.684v.259l-.194.065-.388.194c-.388.194-.711.323-.97.452l-.517.129,1.034-13.7V7.039a2.277,2.277,0,0,0-.388-1.487,1.713,1.713,0,0,0-1.293-.452,6.437,6.437,0,0,0-2.521.582c-1.034.452-1.228.711-1.228.776.065,0,.194-.065.517-.129h0c.065,0,.129-.065.194-.065l.452-.129-.84,10.923v.065a6.427,6.427,0,0,1-.776,1.422,15.433,15.433,0,0,1-1.487,1.681l-.9.84.259-1.228A11.821,11.821,0,0,0,121.8,17.7h0v-.065l.323-4.4.259-.065a2.283,2.283,0,0,0,.776-.259.063.063,0,0,0,.065-.065v-.065h-.194a5.994,5.994,0,0,0-2.068.452,6.848,6.848,0,0,0-2.068.97,5.238,5.238,0,0,0-1.745,2.456,10.507,10.507,0,0,0-.646,3.814,2.37,2.37,0,0,0,.517,1.681,1.629,1.629,0,0,0,1.357.517,4.106,4.106,0,0,0,2.456-.97,9.692,9.692,0,0,0,2.521-2.779l.129-.129h.711v.388c0,.323-.065.711-.065,1.034,0,.388-.065.711-.065.9a1.58,1.58,0,0,0,.388,1.163,1.365,1.365,0,0,0,1.034.388,7.512,7.512,0,0,0,3.1-.97q.873-.485,1.357-.776l.452-.323.129.517a1.692,1.692,0,0,0,.388.84,1.629,1.629,0,0,0,1.357.517,4.6,4.6,0,0,0,2.521-.97,4.856,4.856,0,0,0,.582-1.874,19.409,19.409,0,0,0,.323-2.133h0v-.065l.323-4.4.259-.065a2.283,2.283,0,0,0,.776-.259c.194-.065.259-.065.259-.194Z" transform="translate(-116.5 -4.13)" fill="#fff"/></g></g></g></svg>